<svg xmlns="http://www.w3.org/2000/svg" xmlns:xlink="http://www.w3.org/1999/xlink" width="245.567mm" height="113.081mm" viewBox="3931.3 2991.9 966.8 445.2"><title></title><style type="text/css">
*[layerid="1"] {stroke:#000000;fill:#000000;}
*[layerid="2"] {stroke:#000000;fill:#000000;}
*[layerid="3"] {stroke:#000000;fill:#000000;}
*[layerid="4"] {stroke:#000000;fill:#000000;}
*[layerid="5"] {stroke:#000000;fill:#000000;}
*[layerid="6"] {stroke:#000000;fill:#000000;}
*[layerid="7"] {stroke:#000000;fill:#000000;}
*[layerid="8"] {stroke:#000000;fill:#000000;}
*[layerid="9"] {stroke:#000000;fill:#000000;}
*[layerid="10"] {stroke:#000000;fill:#000000;}
*[layerid="11"] {stroke:#000000;fill:#000000;}
*[layerid="12"] {stroke:#000000;fill:#000000;}
*[layerid="13"] {stroke:#000000;fill:#000000;}
*[layerid="14"] {stroke:#000000;fill:#000000;}
*[layerid="15"] {stroke:#000000;fill:#000000;}
*[layerid="19"] {stroke:#000000;fill:#000000;}
*[layerid="21"] {stroke:#000000;fill:#000000;}
*[layerid="22"] {stroke:#000000;fill:#000000;}
*[layerid="23"] {stroke:#000000;fill:#000000;}
*[layerid="24"] {stroke:#000000;fill:#000000;}
*[layerid="25"] {stroke:#000000;fill:#000000;}
*[layerid="26"] {stroke:#000000;fill:#000000;}
*[layerid="27"] {stroke:#000000;fill:#000000;}
*[layerid="28"] {stroke:#000000;fill:#000000;}
*[layerid="29"] {stroke:#000000;fill:#000000;}
*[layerid="30"] {stroke:#000000;fill:#000000;}
*[layerid="31"] {stroke:#000000;fill:#000000;}
*[layerid="32"] {stroke:#000000;fill:#000000;}
*[layerid="33"] {stroke:#000000;fill:#000000;}
*[layerid="34"] {stroke:#000000;fill:#000000;}
*[layerid="35"] {stroke:#000000;fill:#000000;}
*[layerid="36"] {stroke:#000000;fill:#000000;}
*[layerid="37"] {stroke:#000000;fill:#000000;}
*[layerid="38"] {stroke:#000000;fill:#000000;}
*[layerid="39"] {stroke:#000000;fill:#000000;}
*[layerid="40"] {stroke:#000000;fill:#000000;}
*[layerid="41"] {stroke:#000000;fill:#000000;}
*[layerid="42"] {stroke:#000000;fill:#000000;}
*[layerid="43"] {stroke:#000000;fill:#000000;}
*[layerid="44"] {stroke:#000000;fill:#000000;}
*[layerid="45"] {stroke:#000000;fill:#000000;}
*[layerid="46"] {stroke:#000000;fill:#000000;}
*[layerid="47"] {stroke:#000000;fill:#000000;}
*[layerid="48"] {stroke:#000000;fill:#000000;}
*[layerid="49"] {stroke:#000000;fill:#000000;}
*[layerid="50"] {stroke:#000000;fill:#000000;}
*[layerid="51"] {stroke:#000000;fill:#000000;}
*[layerid="52"] {stroke:#000000;fill:#000000;}
*[layerid="99"] {stroke:#000000;fill:#000000;}
*[layerid="100"] {stroke:#000000;fill:#000000;}
*[layerid="101"] {stroke:#000000;fill:#000000;}
*[layerid="Hole"] {stroke:#000000;fill:#000000;}
*[layerid="DRCError"] {stroke:#000000;fill:#000000;}
*[fill="none"] {fill: none;}
*[stroke="none"] {stroke: none;}
path, polyline, polygon, line {stroke-linecap:round;}
g[c_partid="part_pad"][layerid="1"] ellipse:not([c_etype="pad_outer"]) {fill:#000000;}
g[c_partid="part_pad"][layerid="1"] polygon:not([c_etype="pad_outer"]) {fill:#000000;}
g[c_partid="part_pad"][layerid="1"] polyline:not([c_etype="pad_outer"]) {stroke:#000000;}
g[c_partid="part_pad"][layerid="2"] ellipse:not([c_etype="pad_outer"]) {fill:#000000;}
g[c_partid="part_pad"][layerid="2"] polygon:not([c_etype="pad_outer"]) {fill:#000000;}
g[c_partid="part_pad"][layerid="2"] polyline:not([c_etype="pad_outer"]) {stroke:#000000;}
g[c_partid="part_pad"][layerid="11"] ellipse:not([c_etype="pad_outer"]) {fill:#000000;}
g[c_partid="part_pad"][layerid="11"] polygon:not([c_etype="pad_outer"]) {fill:#000000;}
g[c_partid="part_pad"][layerid="11"] polyline:not([c_etype="pad_outer"]) {stroke:#000000;}
g[c_partid="part_pad"][layerid="11"] circle {fill:#FFFFFF;}
g[c_partid="part_pad"][layerid="11"] > polyline:nth-of-type(2) {stroke:#FFFFFF;}
g[c_partid="part_pad"][layerid="11"][c_shape="ELLIPSE"]  polyline:nth-last-of-type(1) {stroke:#FFFFFF;}
g[c_partid="part_pad"][layerid="11"][c_shape="RECT"]  polyline:nth-last-of-type(1) {stroke:#FFFFFF;}
g[c_partid="part_pad"][layerid="11"][c_shape="POLYGON"]  polyline:nth-last-of-type(1) {stroke:#FFFFFF;}
g[c_partid="part_via"] > * + circle, #gCurParts g[c_partid="part_via"] > * + circle {fill:#FFFFFF;}
g[c_partid="part_pad"] > polygon[c_etype="pad_outer"], #gCurParts g[c_partid="part_pad"] > polygon[c_etype="pad_outer"] {stroke-linejoin: round;stroke-miterlimit: 100;}
g[c_partid="part_hole"] > circle {fill: #FFFFFF;}path, polyline, polygon {stroke-linejoin:round;}
rect, circle, ellipse, polyline, line, polygon, path {shape-rendering:crispEdges;}
</style>
<rect x="3931.3" y="2991.9" width="966.8" height="445.2" fill="#FFFFFF" stroke="none"/><path d="M 4577.57985 3389.47866 L 4048.42195 3388.98134 4048.26884 3388.95072 4048.13912 3388.86381 4048.05255 3388.73387 4048.02233 3388.58068 4048.57667 3050.58134 4048.60731 3050.42847 4048.69406 3050.29893 4048.82375 3050.21239 4048.97667 3050.182 4577.63378 3050.182 4577.78686 3050.21245 4577.91664 3050.29918 4578.00335 3050.42897 4578.03378 3050.58206 4577.98022 3389.07873 4577.94972 3389.23187 4577.86291 3389.36166 4577.73302 3389.44833 4577.57985 3389.47866 Z M 4294.10601 3221.89352 L 4294.88021 3221.85551 4295.64645 3221.74185 4296.39787 3221.55363 4297.12722 3221.29266 4297.82748 3220.96146 4298.4919 3220.56322 4299.11409 3220.10177 4299.68806 3219.58156 4300.20827 3219.00759 4300.66972 3218.3854 4301.06796 3217.72098 4301.39916 3217.02072 4301.66013 3216.29137 4301.84835 3215.53995 4301.96197 3214.77394 4302 3213.98025 4302 3162.50982 4301.96151 3161.7263 4301.84785 3160.96005 4301.65963 3160.20863 4301.52338 3159.82786 4301.5 3159.6931 4301.5 3093.2625 4301.53045 3093.10943 4301.61716 3092.97966 4301.74693 3092.89295 4301.9 3092.8625 4472.67627 3092.8625 4473.54454 3092.82459 4474.39754 3092.71229 4475.2375 3092.52608 4476.05804 3092.26736 4476.85291 3091.93812 4477.61606 3091.54085 4478.34168 3091.07857 4479.02425 3090.55482 4479.65857 3089.97357 4480.23982 3089.33925 4480.76357 3088.65668 4481.22585 3087.93106 4481.62312 3087.16791 4481.95236 3086.37304 4482.21108 3085.5525 4482.39729 3084.71254 4482.50959 3083.85954 4482.54712 3083 4482.50959 3082.14046 4482.39729 3081.28746 4482.21108 3080.4475 4481.95236 3079.62696 4481.62312 3078.83209 4481.22585 3078.06894 4480.76357 3077.34332 4480.23982 3076.66075 4479.65857 3076.02643 4479.02425 3075.44518 4478.34168 3074.92143 4477.61606 3074.45915 4476.85291 3074.06188 4476.05804 3073.73264 4475.2375 3073.47392 4474.39754 3073.28771 4473.54454 3073.17541 4472.67627 3073.1375 4293.82373 3073.1375 4292.95546 3073.17541 4292.10246 3073.28771 4291.2625 3073.47392 4290.44196 3073.73264 4289.64709 3074.06188 4288.88394 3074.45915 4288.15832 3074.92143 4287.47575 3075.44518 4286.84143 3076.02643 4286.26018 3076.66075 4285.73643 3077.34332 4285.27415 3078.06894 4284.87688 3078.83209 4284.54764 3079.62696 4284.28892 3080.4475 4284.10271 3081.28746 4283.99041 3082.14046 4283.95288 3083 4283.99041 3083.85954 4284.10271 3084.71254 4284.28892 3085.5525 4284.54764 3086.37304 4284.87688 3087.16791 4285.27415 3087.93106 4285.64936 3088.52001 4285.69602 3088.623 4285.712 3088.73493 4285.712 3154.19025 4285.68155 3154.34332 4285.59484 3154.47309 4285.46507 3154.5598 4285.312 3154.59025 4197.49431 3154.59025 4195.52614 3154.58975 4194.81705 3154.62571 4194.12523 3154.7317 4193.44768 3154.90713 4192.79135 3155.1502 4192.16298 3155.45843 4191.56902 3155.82865 4191.01556 3156.25706 4190.50829 3156.73926 4190.05239 3157.27032 4189.65257 3157.84476 4189.31291 3158.45671 4189.0369 3159.09989 4188.82738 3159.76768 4188.68649 3160.45325 4188.61568 3161.14955 4188.61568 3161.84945 4188.68649 3162.54575 4188.82738 3163.23132 4189.0369 3163.89911 4189.31291 3164.54229 4189.65257 3165.15424 4190.05239 3165.72868 4190.50829 3166.25974 4191.01556 3166.74194 4191.56902 3167.17035 4192.16298 3167.54057 4192.79135 3167.8488 4193.44768 3168.09187 4194.12523 3168.2673 4194.81705 3168.37329 4195.52629 3168.40926 4196.5001 3168.40975 4285.812 3168.40975 4285.96507 3168.4402 4286.09484 3168.52691 4286.18155 3168.65668 4286.212 3168.80975 4286.212 3213.99018 4286.25049 3214.7737 4286.36415 3215.53995 4286.55237 3216.29137 4286.81334 3217.02072 4287.14454 3217.72098 4287.54278 3218.3854 4288.00423 3219.00759 4288.52444 3219.58156 4289.09841 3220.10177 4289.7206 3220.56322 4290.38502 3220.96146 4291.08528 3221.29266 4291.81463 3221.55363 4292.56605 3221.74185 4293.3323 3221.85551 4294.10601 3221.89352 Z M 4405.97027 3337.38932 L 4406.5076 3337.40975 4553.4924 3337.40975 4554.02973 3337.38932 4554.194 3337.37472 4554.72399 3337.30038 4554.88594 3337.26923 4555.40569 3337.14166 4555.56366 3337.09429 4556.06784 3336.91479 4556.2202 3336.85168 4556.70364 3336.62209 4556.84884 3336.54389 4557.30656 3336.26658 4557.44311 3336.17409 4557.87043 3335.85189 4557.99691 3335.74606 4558.39131 3335.38056 4574.38056 3319.39131 4574.74606 3318.99691 4574.85189 3318.87043 4575.17409 3318.44311 4575.26658 3318.30656 4575.54389 3317.84884 4575.62209 3317.70364 4575.85168 3317.2202 4575.91479 3317.06784 4576.09429 3316.56366 4576.14166 3316.40569 4576.26923 3315.88594 4576.30038 3315.72399 4576.37472 3315.194 4576.38932 3315.02973 4576.40975 3314.4924 4576.40975 3193.0076 4576.38932 3192.47027 4576.37472 3192.306 4576.30038 3191.77601 4576.26923 3191.61406 4576.14166 3191.09431 4576.09429 3190.93634 4575.91479 3190.43216 4575.85168 3190.2798 4575.62209 3189.79636 4575.54389 3189.65116 4575.26658 3189.19344 4575.17409 3189.05689 4574.85189 3188.62957 4574.74606 3188.50309 4574.38056 3188.10869 4552.51116 3166.2393 4552.42445 3166.10953 4552.394 3165.95645 4552.394 3146.13582 4552.35551 3145.3523 4552.24185 3144.58605 4552.05363 3143.83463 4551.79266 3143.10528 4551.46146 3142.40502 4551.06322 3141.7406 4550.60177 3141.11841 4550.08156 3140.54444 4549.50759 3140.02423 4548.8854 3139.56278 4548.22098 3139.16454 4547.52072 3138.83334 4546.79137 3138.57237 4546.03995 3138.38415 4545.2737 3138.27049 4544.5 3138.23248 4543.7263 3138.27049 4542.96005 3138.38415 4542.20863 3138.57237 4541.47928 3138.83334 4540.77902 3139.16454 4540.1146 3139.56278 4539.49241 3140.02423 4538.91844 3140.54444 4538.39823 3141.11841 4537.93678 3141.7406 4537.53854 3142.40502 4537.20734 3143.10528 4536.94637 3143.83463 4536.75815 3144.58605 4536.64449 3145.3523 4536.606 3146.13582 4536.606 3165.60456 4536.57271 3165.76432 4536.47838 3165.89749 4501.97513 3197.9796 4501.84456 3198.06068 4501.69306 3198.08654 4501.54299 3198.05337 4501.4165 3197.96606 4501.33228 3197.83749 4501.30275 3197.68666 4501.30275 3165.98486 4501.31999 3165.86869 4501.37022 3165.76254 4509.10199 3154.19768 4509.19107 3154.10262 4509.30597 3154.04122 4509.43452 3154.02 4524.99018 3154.02 4525.7737 3153.98151 4526.53995 3153.86785 4527.29137 3153.67963 4528.02072 3153.41866 4528.72098 3153.08746 4529.3854 3152.68922 4530.00759 3152.22777 4530.58156 3151.70756 4531.10177 3151.13359 4531.56322 3150.5114 4531.96146 3149.84698 4532.29266 3149.14672 4532.55363 3148.41737 4532.74185 3147.66595 4532.85551 3146.8997 4532.89352 3146.126 4532.85551 3145.3523 4532.74185 3144.58605 4532.55363 3143.83463 4532.29266 3143.10528 4531.96146 3142.40502 4531.56322 3141.7406 4531.10177 3141.11841 4530.58156 3140.54444 4530.00759 3140.02423 4529.3854 3139.56278 4528.72098 3139.16454 4528.02072 3138.83334 4527.29137 3138.57237 4526.53995 3138.38415 4525.7737 3138.27049 4524.99018 3138.232 4505.00982 3138.232 4504.2263 3138.27049 4503.46005 3138.38415 4502.70863 3138.57237 4501.97928 3138.83334 4501.27902 3139.16454 4500.6146 3139.56278 4499.99241 3140.02423 4499.41844 3140.54444 4498.89823 3141.11841 4498.41315 3141.77907 4487.83298 3157.60445 4487.42951 3158.2772 4487.09813 3158.97737 4486.83697 3159.70666 4486.64856 3160.45803 4486.53469 3161.22425 4486.49648 3161.99794 4486.53429 3162.77165 4486.64775 3163.53792 4486.83578 3164.28939 4487.09641 3165.01842 4487.44454 3165.75109 4487.48325 3165.92275 4487.48325 3194.9927 4487.4528 3195.14578 4487.36609 3195.27555 4443.03394 3239.6077 4442.55793 3240.13456 4442.14368 3240.6987 4441.78863 3241.30185 4441.49642 3241.93782 4441.27004 3242.6001 4441.11184 3243.28187 4441.02341 3243.97616 4441.00568 3244.67583 4441.05883 3245.3737 4441.1823 3246.06262 4441.37484 3246.73551 4441.49722 3247.04187 4441.52573 3247.1943 4441.49413 3247.34613 4441.40716 3247.47452 4441.27789 3247.56019 4441.12575 3247.59025 4402.31145 3247.59025 4402.14002 3247.55165 4401.414 3247.20726 4400.68487 3246.94637 4399.93345 3246.75815 4399.1672 3246.64449 4398.3935 3246.60648 4397.6198 3246.64449 4396.85355 3246.75815 4396.10213 3246.94637 4395.37278 3247.20734 4394.67252 3247.53854 4394.0081 3247.93678 4393.38591 3248.39823 4392.81194 3248.91844 4392.29173 3249.49241 4391.83028 3250.1146 4391.43204 3250.77902 4391.10084 3251.47928 4390.83987 3252.20863 4390.65165 3252.96005 4390.53799 3253.7263 4390.49998 3254.5 4390.53799 3255.2737 4390.65165 3256.03995 4390.83987 3256.79137 4391.10084 3257.52072 4391.43204 3258.22098 4391.83028 3258.8854 4392.29173 3259.50759 4392.81194 3260.08156 4393.38591 3260.60177 4394.0081 3261.06322 4394.67252 3261.46146 4395.37278 3261.79266 4396.10213 3262.05363 4396.85355 3262.24185 4397.6198 3262.35551 4398.3935 3262.39352 4399.1672 3262.35551 4399.93345 3262.24185 4400.68487 3262.05363 4401.414 3261.79274 4402.14002 3261.44835 4402.31145 3261.40975 4445.48986 3261.40975 4446.199 3261.37379 4446.73541 3261.29161 4446.85656 3261.29161 4447.3884 3261.37309 4448.09754 3261.40905 4492.97121 3261.40905 4493.12428 3261.4395 4493.25405 3261.52621 4517.1085 3285.38057 4517.50289 3285.74606 4517.62938 3285.8519 4518.05669 3286.17409 4518.19325 3286.26658 4518.65096 3286.54389 4518.79617 3286.6221 4519.2796 3286.85168 4519.43197 3286.9148 4519.93614 3287.09429 4520.09412 3287.14167 4520.61386 3287.26923 4520.77582 3287.30038 4521.3058 3287.37472 4521.47009 3287.38932 4522.0074 3287.40975 4539.96683 3287.40975 4540.08687 3287.42818 4540.19584 3287.48179 4540.47416 3287.67613 4541.16603 3288.06841 4541.89159 3288.39417 4542.64447 3288.65056 4543.41805 3288.83532 4544.20554 3288.94683 4545 3288.98411 4545.79446 3288.94683 4546.58195 3288.83532 4547.35553 3288.65056 4548.10841 3288.39417 4548.83397 3288.06841 4549.52584 3287.67613 4550.17794 3287.22079 4550.78453 3286.70639 4551.34029 3286.13745 4551.84033 3285.51896 4552.28026 3284.85637 4552.6562 3284.1555 4552.96487 3283.42249 4553.20354 3282.66381 4553.37011 3281.88611 4553.46313 3281.09623 4553.48178 3280.30111 4553.42588 3279.50774 4553.29594 3278.72309 4553.0931 3277.95405 4552.81913 3277.20739 4552.47645 3276.48966 4552.06806 3275.80717 4551.59756 3275.16593 4551.06908 3274.57156 4550.48727 3274.0293 4549.85723 3273.54389 4549.18451 3273.11962 4548.47501 3272.7602 4547.73497 3272.46881 4546.9709 3272.24799 4546.18951 3272.09969 4545.39767 3272.02522 4544.60233 3272.02522 4543.81049 3272.09969 4543.0291 3272.24799 4542.26503 3272.46881 4541.52499 3272.7602 4540.81549 3273.11962 4540.16704 3273.52858 4540.06472 3273.57452 4539.95366 3273.59025 4525.02759 3273.59025 4524.87452 3273.5598 4524.74475 3273.47309 4500.8903 3249.61873 4500.49591 3249.25324 4500.36942 3249.1474 4499.94211 3248.82521 4499.80555 3248.73272 4499.34784 3248.45541 4499.20263 3248.3772 4498.7192 3248.14762 4498.56683 3248.0845 4498.06266 3247.90501 4497.90468 3247.85763 4497.38494 3247.73007 4497.22298 3247.69892 4496.693 3247.62458 4496.52871 3247.60998 4495.9914 3247.58955 4455.5615 3247.58955 4455.40842 3247.5591 4455.27865 3247.47239 4455.19195 3247.34262 4455.1615 3247.18955 4455.19195 3247.03648 4455.27865 3246.90671 4486.55096 3215.6344 4486.69168 3215.54334 4486.85735 3215.51794 4487.01889 3215.56264 4487.14793 3215.66961 4487.22182 3215.82005 4487.33987 3216.29137 4487.60084 3217.02072 4487.93204 3217.72098 4488.33028 3218.3854 4488.79173 3219.00759 4489.31194 3219.58156 4489.88591 3220.10177 4490.5081 3220.56322 4491.17252 3220.96146 4491.87278 3221.29266 4492.60213 3221.55363 4493.35355 3221.74185 4494.1198 3221.85551 4494.8935 3221.89352 4495.6672 3221.85551 4496.43345 3221.74185 4497.18487 3221.55363 4497.91422 3221.29266 4498.61448 3220.96146 4499.2789 3220.56322 4499.90109 3220.10177 4500.47506 3219.58156 4500.99527 3219.00759 4501.45672 3218.3854 4501.85496 3217.72098 4502.18616 3217.02072 4502.35003 3216.56274 4502.39265 3216.47739 4502.45427 3216.40456 4543.9778 3177.79479 4544.10724 3177.71414 4544.25745 3177.68779 4544.40661 3177.71958 4544.53302 3177.80489 4562.47309 3195.74495 4562.5598 3195.87472 4562.59025 3196.0278 4562.59025 3311.4722 4562.5598 3311.62528 4562.47309 3311.75505 4550.75505 3323.47309 4550.62528 3323.5598 4550.4722 3323.59025 4409.5278 3323.59025 4409.37472 3323.5598 4409.24495 3323.47309 4387.02691 3301.25505 4386.9402 3301.12528 4386.90975 3300.9722 4386.90975 3297.30975 4386.9402 3297.15668 4387.02691 3297.02691 4387.15668 3296.9402 4387.30975 3296.90975 4390.55776 3296.90975 4390.7072 3296.93871 4390.835 3297.02141 4390.92265 3297.14586 4390.95745 3297.29405 4390.93438 3297.44451 4390.83987 3297.70863 4390.65165 3298.46005 4390.53799 3299.2263 4390.49998 3300 4390.53799 3300.7737 4390.65165 3301.53995 4390.83987 3302.29137 4391.10084 3303.02072 4391.43204 3303.72098 4391.83028 3304.3854 4392.29173 3305.00759 4392.81194 3305.58156 4393.38591 3306.10177 4394.0081 3306.56322 4394.67252 3306.96146 4395.37278 3307.29266 4396.10213 3307.55363 4396.85355 3307.74185 4397.6198 3307.85551 4398.3935 3307.89352 4399.1672 3307.85551 4399.93345 3307.74185 4400.68487 3307.55363 4401.414 3307.29274 4402.14002 3306.94835 4402.31145 3306.90975 4446.08554 3306.90975 4446.17129 3306.91905 4446.46317 3306.98311 4446.988 3307.05672 4447.15227 3307.07132 4447.6896 3307.09175 4539.96254 3307.09175 4540.08257 3307.11018 4540.19154 3307.16379 4540.47416 3307.36113 4541.16603 3307.75341 4541.89159 3308.07917 4542.64447 3308.33556 4543.41805 3308.52032 4544.20554 3308.63183 4545 3308.66911 4545.79446 3308.63183 4546.58195 3308.52032 4547.35553 3308.33556 4548.10841 3308.07917 4548.83397 3307.75341 4549.52584 3307.36113 4550.17794 3306.90579 4550.78453 3306.39139 4551.34029 3305.82245 4551.84033 3305.20396 4552.28026 3304.54137 4552.6562 3303.8405 4552.96487 3303.10749 4553.20354 3302.34881 4553.37011 3301.57111 4553.46313 3300.78123 4553.48178 3299.98611 4553.42588 3299.19274 4553.29594 3298.40809 4553.0931 3297.63905 4552.81913 3296.89239 4552.47645 3296.17466 4552.06806 3295.49217 4551.59756 3294.85093 4551.06908 3294.25656 4550.48727 3293.7143 4549.85723 3293.22889 4549.18451 3292.80462 4548.47501 3292.4452 4547.73497 3292.15381 4546.9709 3291.93299 4546.18951 3291.78469 4545.39767 3291.71022 4544.60233 3291.71022 4543.81049 3291.78469 4543.0291 3291.93299 4542.26503 3292.15381 4541.52499 3292.4452 4540.81549 3292.80462 4540.1718 3293.21058 4540.06948 3293.25652 4539.95842 3293.27225 4454.2116 3293.27225 4454.05759 3293.24141 4453.92733 3293.15366 4453.8409 3293.02251 4453.81162 3292.8682 4453.84402 3292.71451 4453.97915 3292.39961 4454.18867 3291.73182 4454.32956 3291.04625 4454.40037 3290.34995 4454.40037 3289.65005 4454.32956 3288.95375 4454.18867 3288.26818 4453.97915 3287.60039 4453.70314 3286.95721 4453.36348 3286.34526 4452.96366 3285.77082 4452.50776 3285.23976 4452.00049 3284.75756 4451.44703 3284.32915 4450.85307 3283.95893 4450.2247 3283.6507 4449.56837 3283.40763 4448.89082 3283.2322 4448.199 3283.12621 4447.48986 3283.09025 4380.00507 3283.09025 4379.65003 3283.09925 4379.30097 3283.12583 4378.95369 3283.17006 4378.6091 3283.23182 4378.26809 3283.31095 4377.93151 3283.40726 4377.60025 3283.52049 4377.27515 3283.65035 4376.95704 3283.79651 4376.64675 3283.9586 4376.34506 3284.13619 4376.05275 3284.32884 4375.77058 3284.53604 4375.49926 3284.75727 4375.2395 3284.99196 4374.99196 3285.2395 4374.75727 3285.49926 4374.53604 3285.77058 4374.32884 3286.05275 4374.13619 3286.34506 4373.9586 3286.64675 4373.79651 3286.95704 4373.65035 3287.27515 4373.52049 3287.60025 4373.40726 3287.93151 4373.31095 3288.26809 4373.23182 3288.6091 4373.17006 3288.95369 4373.12583 3289.30097 4373.09925 3289.65003 4373.09025 3290.00507 4373.09025 3303.9924 4373.11068 3304.52973 4373.12528 3304.694 4373.19962 3305.22399 4373.23077 3305.38594 4373.35834 3305.90569 4373.40571 3306.06366 4373.58521 3306.56784 4373.64832 3306.7202 4373.87791 3307.20364 4373.95611 3307.34884 4374.23342 3307.80656 4374.32591 3307.94311 4374.64811 3308.37043 4374.75394 3308.49691 4375.11944 3308.89131 4401.60869 3335.38056 4402.00309 3335.74606 4402.12957 3335.85189 4402.55689 3336.17409 4402.69344 3336.26658 4403.15116 3336.54389 4403.29636 3336.62209 4403.7798 3336.85168 4403.93216 3336.91479 4404.43634 3337.09429 4404.59431 3337.14166 4405.11406 3337.26923 4405.27601 3337.30038 4405.806 3337.37472 4405.97027 3337.38932 Z M 4149.51389 3350.98178 L 4150.30726 3350.92588 4151.09191 3350.79594 4151.86095 3350.5931 4152.60761 3350.31913 4153.32534 3349.97645 4154.00783 3349.56806 4154.11797 3349.48725 4154.2301 3349.42962 4154.35459 3349.40975 4163.96489 3349.40975 4164.08045 3349.4268 4164.18615 3349.47651 4164.64363 3349.78026 4165.3445 3350.1562 4166.07751 3350.46487 4166.83619 3350.70354 4167.61389 3350.87011 4168.40377 3350.96313 4169.19889 3350.98178 4169.99226 3350.92588 4170.77691 3350.79594 4171.54595 3350.5931 4172.29261 3350.31913 4173.01034 3349.97645 4173.69283 3349.56806 4173.80297 3349.48725 4173.9151 3349.42962 4174.03959 3349.40975 4183.64989 3349.40975 4183.76545 3349.4268 4183.87115 3349.47651 4184.32863 3349.78026 4185.0295 3350.1562 4185.76251 3350.46487 4186.52119 3350.70354 4187.29889 3350.87011 4188.08877 3350.96313 4188.88389 3350.98178 4189.67726 3350.92588 4190.46191 3350.79594 4191.23095 3350.5931 4191.97761 3350.31913 4192.69534 3349.97645 4193.37783 3349.56806 4193.84021 3349.2288 4193.97658 3349.16407 4194.25347 3349.09237 4194.9098 3348.8493 4195.53817 3348.54107 4196.13213 3348.17085 4196.68559 3347.74244 4197.19286 3347.26024 4197.64876 3346.72918 4198.04858 3346.15474 4198.38824 3345.54279 4198.66425 3344.89961 4198.87377 3344.23182 4199.01466 3343.54625 4199.08547 3342.84995 4199.08547 3342.15005 4199.01466 3341.45375 4198.87377 3340.76818 4198.66425 3340.10039 4198.38824 3339.45721 4198.04858 3338.84526 4197.64876 3338.27082 4197.19286 3337.73976 4196.68559 3337.25756 4196.13213 3336.82915 4195.53817 3336.45893 4194.9098 3336.1507 4194.25347 3335.90763 4193.97658 3335.83593 4193.84021 3335.7712 4193.37783 3335.43194 4192.69534 3335.02355 4191.97761 3334.68087 4191.23095 3334.4069 4190.46191 3334.20406 4189.67726 3334.07412 4188.88389 3334.01822 4188.08877 3334.03687 4187.29889 3334.12989 4186.52119 3334.29646 4185.76251 3334.53513 4185.0295 3334.8438 4184.32863 3335.21974 4183.87115 3335.52349 4183.76545 3335.5732 4183.64989 3335.59025 4174.03959 3335.59025 4173.9151 3335.57038 4173.80297 3335.51275 4173.69283 3335.43194 4173.01034 3335.02355 4172.29261 3334.68087 4171.54595 3334.4069 4170.77691 3334.20406 4169.99226 3334.07412 4169.19889 3334.01822 4168.40377 3334.03687 4167.61389 3334.12989 4166.83619 3334.29646 4166.07751 3334.53513 4165.3445 3334.8438 4164.64363 3335.21974 4164.18615 3335.52349 4164.08045 3335.5732 4163.96489 3335.59025 4154.35459 3335.59025 4154.2301 3335.57038 4154.11797 3335.51275 4154.00783 3335.43194 4153.32534 3335.02355 4152.76919 3334.75801 4152.65869 3334.67989 4142.66694 3324.68814 4142.58473 3324.5688 4142.55043 3324.428 4142.49674 3323.48326 4142.36271 3322.4775 4142.153 3321.48474 4141.86881 3320.51069 4141.51178 3319.56093 4141.08393 3318.64088 4140.58773 3317.75583 4140.02601 3316.91084 4139.40199 3316.11075 4138.71926 3315.36015 4137.98171 3314.66333 4137.19357 3314.02429 4136.35936 3313.44668 4135.48386 3312.93382 4134.57208 3312.48864 4133.62924 3312.11369 4132.66074 3311.81112 4131.67214 3311.58266 4130.66908 3311.42963 4129.65733 3311.35289 4128.64267 3311.35289 4127.63092 3311.42963 4126.62786 3311.58266 4125.63926 3311.81112 4124.67076 3312.11369 4123.72792 3312.48864 4122.81614 3312.93382 4121.94064 3313.44668 4121.10643 3314.02429 4120.31829 3314.66333 4119.58074 3315.36015 4118.89801 3316.11075 4118.27399 3316.91084 4117.71227 3317.75583 4117.21607 3318.64088 4116.78822 3319.56093 4116.43119 3320.51069 4116.147 3321.48474 4115.93729 3322.4775 4115.80326 3323.48326 4115.74569 3324.49629 4115.76489 3325.51077 4115.86076 3326.52089 4116.03275 3327.52086 4116.27987 3328.50497 4116.60072 3329.46757 4116.99344 3330.40314 4117.4558 3331.30634 4117.98514 3332.17198 4118.57843 3332.99511 4119.23227 3333.77101 4119.94292 3334.49524 4120.70631 3335.16365 4121.51806 3335.77241 4122.37353 3336.31804 4123.26782 3336.7974 4124.19579 3337.20776 4125.15215 3337.54676 4126.1314 3337.81247 4127.12794 3338.00335 4128.13607 3338.11832 4129.15 3338.15671 4130.16393 3338.11832 4131.17206 3338.00335 4132.1686 3337.81247 4132.96357 3337.59676 4133.10234 3337.58426 4133.23698 3337.62011 4133.35116 3337.69996 4141.50023 3345.84903 4141.5823 3345.96804 4141.74659 3346.33397 4142.13887 3347.02584 4142.59421 3347.67794 4143.10861 3348.28453 4143.67755 3348.84029 4144.29604 3349.34033 4144.95863 3349.78026 4145.6595 3350.1562 4146.39251 3350.46487 4147.15119 3350.70354 4147.92889 3350.87011 4148.71877 3350.96313 4149.51389 3350.98178 Z M 4120.15 3174.65671 L 4121.16393 3174.61832 4122.17206 3174.50335 4123.1686 3174.31247 4124.14785 3174.04676 4125.10421 3173.70776 4126.03218 3173.2974 4126.92647 3172.81804 4127.78194 3172.27241 4128.59369 3171.66365 4129.35708 3170.99524 4130.06773 3170.27101 4130.72157 3169.49511 4131.31486 3168.67198 4131.44755 3168.49905 4131.56583 3168.43274 4131.69948 3168.40975 4176.49997 3168.40975 4180.42418 3168.40925 4180.95368 3168.37455 4181.46122 3168.27359 4181.95125 3168.10725 4182.41537 3167.87837 4182.84565 3167.59087 4183.23471 3167.24966 4183.57592 3166.8606 4183.86342 3166.43032 4184.0923 3165.9662 4184.25864 3165.47617 4184.3596 3164.96863 4184.3943 3164.43916 4184.3943 3158.55984 4184.3596 3158.03037 4184.25864 3157.52283 4184.0923 3157.0328 4183.86342 3156.56868 4183.57592 3156.1384 4183.23471 3155.74934 4182.84565 3155.40813 4182.41537 3155.12063 4181.95125 3154.89175 4181.46122 3154.72541 4180.95368 3154.62445 4180.42421 3154.58975 4172.57567 3154.58975 4172.55567 3154.59025 4132.00953 3154.59025 4131.87115 3154.56555 4131.74985 3154.49449 4131.66063 3154.38586 4131.58773 3154.25583 4131.02601 3153.41084 4130.40199 3152.61075 4129.71926 3151.86015 4128.98171 3151.16333 4128.19357 3150.52429 4127.35936 3149.94668 4126.48386 3149.43382 4125.57208 3148.98864 4124.62924 3148.61369 4123.66074 3148.31112 4122.67214 3148.08266 4121.66908 3147.92963 4120.65733 3147.85289 4119.64267 3147.85289 4118.63092 3147.92963 4117.62786 3148.08266 4116.63926 3148.31112 4115.67076 3148.61369 4114.72792 3148.98864 4113.81614 3149.43382 4112.94064 3149.94668 4112.10643 3150.52429 4111.31829 3151.16333 4110.58074 3151.86015 4109.89801 3152.61075 4109.27399 3153.41084 4108.71227 3154.25583 4108.21607 3155.14088 4107.78822 3156.06093 4107.43119 3157.01069 4107.147 3157.98474 4106.93729 3158.9775 4106.80326 3159.98326 4106.74569 3160.99629 4106.76489 3162.01077 4106.86076 3163.02089 4107.03275 3164.02086 4107.27987 3165.00497 4107.60072 3165.96757 4107.99344 3166.90314 4108.4558 3167.80634 4108.98514 3168.67198 4109.57843 3169.49511 4110.23227 3170.27101 4110.94292 3170.99524 4111.70631 3171.66365 4112.51806 3172.27241 4113.37353 3172.81804 4114.26782 3173.2974 4115.19579 3173.70776 4116.15215 3174.04676 4117.1314 3174.31247 4118.12794 3174.50335 4119.13607 3174.61832 4120.15 3174.65671 Z M 4545 3269.29911 L 4545.79446 3269.26183 4546.58195 3269.15032 4547.35553 3268.96556 4548.10841 3268.70917 4548.83397 3268.38341 4549.52584 3267.99113 4550.17794 3267.53579 4550.78453 3267.02139 4551.34029 3266.45245 4551.84033 3265.83396 4552.28026 3265.17137 4552.6562 3264.4705 4552.96487 3263.73749 4553.20354 3262.97881 4553.37011 3262.20111 4553.46313 3261.41123 4553.48178 3260.61611 4553.42588 3259.82274 4553.29594 3259.03809 4553.0931 3258.26905 4552.81913 3257.52239 4552.47645 3256.80466 4552.06806 3256.12217 4551.59756 3255.48093 4551.51082 3255.38338 4551.43587 3255.25977 4551.40975 3255.11759 4551.40975 3205.09883 4551.4374 3204.9527 4551.60927 3204.51479 4551.81177 3203.79506 4551.9416 3203.05875 4551.99747 3202.31318 4551.97883 3201.56574 4551.88586 3200.82387 4551.71949 3200.09495 4551.48137 3199.38621 4551.17386 3198.70471 4550.80003 3198.05721 4550.36358 3197.45015 4549.86886 3196.88956 4549.32078 3196.38102 4548.72479 3195.92957 4548.08681 3195.53971 4547.41318 3195.21531 4546.71061 3194.95959 4545.98606 3194.7751 4545.24674 3194.66367 4544.5 3194.6264 4543.75326 3194.66367 4543.01394 3194.7751 4542.28939 3194.95959 4541.58682 3195.21531 4540.91319 3195.53971 4540.27521 3195.92957 4539.67922 3196.38102 4539.13114 3196.88956 4538.63642 3197.45015 4538.19997 3198.05721 4537.82614 3198.70471 4537.51863 3199.38621 4537.28051 3200.09495 4537.11414 3200.82387 4537.02117 3201.56574 4537.00253 3202.31318 4537.0584 3203.05875 4537.18823 3203.79506 4537.39073 3204.51479 4537.5626 3204.9527 4537.59025 3205.09883 4537.59025 3256.58266 4537.5758 3256.6892 4537.52355 3256.80466 4537.18087 3257.52239 4536.9069 3258.26905 4536.70406 3259.03809 4536.57412 3259.82274 4536.51822 3260.61611 4536.53687 3261.41123 4536.62989 3262.20111 4536.79646 3262.97881 4537.03513 3263.73749 4537.3438 3264.4705 4537.71974 3265.17137 4538.15967 3265.83396 4538.65971 3266.45245 4539.21547 3267.02139 4539.82206 3267.53579 4540.47416 3267.99113 4541.16603 3268.38341 4541.89159 3268.70917 4542.64447 3268.96556 4543.41805 3269.15032 4544.20554 3269.26183 4545 3269.29911 Z M 4525 3119.76752 L 4525.7737 3119.72951 4526.53995 3119.61585 4527.29137 3119.42763 4528.02072 3119.16666 4528.72098 3118.83546 4529.3854 3118.43722 4530.00759 3117.97577 4530.58156 3117.45556 4531.10177 3116.88159 4531.56322 3116.2594 4531.96146 3115.59498 4532.29266 3114.89472 4532.55363 3114.16537 4532.74185 3113.41395 4532.85551 3112.6477 4532.894 3111.86418 4532.894 3085.67515 4532.91535 3085.5462 4533.15056 3084.85553 4533.33532 3084.08195 4533.44683 3083.29446 4533.48411 3082.5 4533.44683 3081.70554 4533.33532 3080.91805 4533.15056 3080.14447 4532.89417 3079.39159 4532.56841 3078.66603 4532.17613 3077.97416 4531.72079 3077.32206 4531.20639 3076.71547 4530.63745 3076.15971 4530.01896 3075.65967 4529.35637 3075.21974 4528.6555 3074.8438 4527.92249 3074.53513 4527.16381 3074.29646 4526.38611 3074.12989 4525.59623 3074.03687 4524.80111 3074.01822 4524.00774 3074.07412 4523.22309 3074.20406 4522.45405 3074.4069 4521.70739 3074.68087 4520.98966 3075.02355 4520.30717 3075.43194 4519.66593 3075.90244 4519.07156 3076.43092 4518.5293 3077.01273 4518.04389 3077.64277 4517.61962 3078.31549 4517.2602 3079.02499 4516.96881 3079.76503 4516.74799 3080.5291 4516.59969 3081.31049 4516.52522 3082.10233 4516.52522 3082.89767 4516.59969 3083.68951 4516.74799 3084.4709 4516.96881 3085.23497 4517.07819 3085.51275 4517.106 3085.6593 4517.106 3111.86418 4517.14449 3112.6477 4517.25815 3113.41395 4517.44637 3114.16537 4517.70734 3114.89472 4518.03854 3115.59498 4518.43678 3116.2594 4518.89823 3116.88159 4519.41844 3117.45556 4519.99241 3117.97577 4520.6146 3118.43722 4521.27902 3118.83546 4521.97928 3119.16666 4522.70863 3119.42763 4523.46005 3119.61585 4524.2263 3119.72951 4525 3119.76752 Z M 4504.2263 3119.72951 L 4505 3119.76752 4505.7737 3119.72951 4506.53995 3119.61585 4507.29137 3119.42763 4508.02072 3119.16666 4508.72098 3118.83546 4509.3854 3118.43722 4510.00759 3117.97577 4510.58884 3117.44896 4510.88996 3117.14784 4511.41677 3116.56659 4511.87822 3115.9444 4512.27646 3115.27998 4512.60766 3114.57972 4512.86863 3113.85037 4513.05685 3113.09895 4513.17051 3112.3327 4513.209 3111.54918 4513.209 3085.67515 4513.23035 3085.5462 4513.46556 3084.85553 4513.65032 3084.08195 4513.76183 3083.29446 4513.79911 3082.5 4513.76183 3081.70554 4513.65032 3080.91805 4513.46556 3080.14447 4513.20917 3079.39159 4512.88341 3078.66603 4512.49113 3077.97416 4512.03579 3077.32206 4511.52139 3076.71547 4510.95245 3076.15971 4510.33396 3075.65967 4509.67137 3075.21974 4508.9705 3074.8438 4508.23749 3074.53513 4507.47881 3074.29646 4506.70111 3074.12989 4505.91123 3074.03687 4505.11611 3074.01822 4504.32274 3074.07412 4503.53809 3074.20406 4502.76905 3074.4069 4502.02239 3074.68087 4501.30466 3075.02355 4500.62217 3075.43194 4499.98093 3075.90244 4499.38656 3076.43092 4498.8443 3077.01273 4498.35889 3077.64277 4497.93462 3078.31549 4497.5752 3079.02499 4497.28381 3079.76503 4497.06299 3080.5291 4496.91469 3081.31049 4496.84022 3082.10233 4496.84022 3082.89767 4496.91469 3083.68951 4497.06299 3084.4709 4497.28381 3085.23497 4497.39319 3085.51275 4497.421 3085.6593 4497.421 3109.6346 4497.40901 3109.73179 4497.25815 3110.33405 4497.14449 3111.1003 4497.10648 3111.874 4497.14449 3112.6477 4497.25815 3113.41395 4497.44637 3114.16537 4497.70734 3114.89472 4498.03854 3115.59498 4498.43678 3116.2594 4498.89823 3116.88159 4499.41844 3117.45556 4499.99241 3117.97577 4500.6146 3118.43722 4501.27902 3118.83546 4501.97928 3119.16666 4502.70863 3119.42763 4503.46005 3119.61585 4504.2263 3119.72951 Z M 4543.7263 3119.72951 L 4544.5 3119.76752 4545.2737 3119.72951 4546.03995 3119.61585 4546.79137 3119.42763 4547.52072 3119.16666 4548.22098 3118.83546 4548.8854 3118.43722 4549.50759 3117.97577 4550.08884 3117.44896 4550.25996 3117.27784 4550.78677 3116.69659 4551.24822 3116.0744 4551.64646 3115.40998 4551.97766 3114.70972 4552.23863 3113.98037 4552.42685 3113.22895 4552.54051 3112.4627 4552.579 3111.67918 4552.579 3085.67515 4552.60035 3085.5462 4552.83556 3084.85553 4553.02032 3084.08195 4553.13183 3083.29446 4553.16911 3082.5 4553.13183 3081.70554 4553.02032 3080.91805 4552.83556 3080.14447 4552.57917 3079.39159 4552.25341 3078.66603 4551.86113 3077.97416 4551.40579 3077.32206 4550.89139 3076.71547 4550.32245 3076.15971 4549.70396 3075.65967 4549.04137 3075.21974 4548.3405 3074.8438 4547.60749 3074.53513 4546.84881 3074.29646 4546.07111 3074.12989 4545.28123 3074.03687 4544.48611 3074.01822 4543.69274 3074.07412 4542.90809 3074.20406 4542.13905 3074.4069 4541.39239 3074.68087 4540.67466 3075.02355 4539.99217 3075.43194 4539.35093 3075.90244 4538.75656 3076.43092 4538.2143 3077.01273 4537.72889 3077.64277 4537.30462 3078.31549 4536.9452 3079.02499 4536.65381 3079.76503 4536.43299 3080.5291 4536.28469 3081.31049 4536.21022 3082.10233 4536.21022 3082.89767 4536.28469 3083.68951 4536.43299 3084.4709 4536.65381 3085.23497 4536.76319 3085.51275 4536.791 3085.6593 4536.791 3110.15359 4536.75815 3110.33405 4536.64449 3111.1003 4536.60648 3111.874 4536.64449 3112.6477 4536.75815 3113.41395 4536.94637 3114.16537 4537.20734 3114.89472 4537.53854 3115.59498 4537.93678 3116.2594 4538.39823 3116.88159 4538.91844 3117.45556 4539.49241 3117.97577 4540.1146 3118.43722 4540.77902 3118.83546 4541.47928 3119.16666 4542.20863 3119.42763 4542.96005 3119.61585 4543.7263 3119.72951 Z M 4141.07397 3133.74442 L 4142.02363 3133.82108 4142.97637 3133.82108 4143.92603 3133.74442 4144.86644 3133.59159 4145.7915 3133.36358 4146.69522 3133.06187 4147.57172 3132.68843 4148.41534 3132.24567 4149.22059 3131.73645 4149.98226 3131.1641 4150.6954 3130.53231 4151.35539 3129.84519 4151.95795 3129.10719 4152.49917 3128.32309 4152.97554 3127.49799 4153.38398 3126.63723 4153.72183 3125.7464 4153.9869 3124.83127 4154.17747 3123.89777 4154.29231 3122.95197 4154.33068 3122 4154.29231 3121.04803 4154.17747 3120.10223 4153.9869 3119.16873 4153.72183 3118.2536 4153.38398 3117.36277 4152.97554 3116.50201 4152.49917 3115.67691 4151.95795 3114.89281 4151.35539 3114.15481 4150.6954 3113.46769 4149.98226 3112.8359 4149.22059 3112.26355 4148.41534 3111.75433 4147.57172 3111.31157 4146.69522 3110.93813 4145.7915 3110.63642 4144.86644 3110.40841 4143.92603 3110.25558 4142.97637 3110.17892 4142.02363 3110.17892 4141.07397 3110.25558 4140.13356 3110.40841 4139.2085 3110.63642 4138.30478 3110.93813 4137.42828 3111.31157 4136.58466 3111.75433 4135.77941 3112.26355 4135.01774 3112.8359 4134.3046 3113.46769 4133.64461 3114.15481 4133.04205 3114.89281 4132.50083 3115.67691 4132.02446 3116.50201 4131.61602 3117.36277 4131.27817 3118.2536 4131.0131 3119.16873 4130.82253 3120.10223 4130.70769 3121.04803 4130.66932 3122 4130.70769 3122.95197 4130.82253 3123.89777 4131.0131 3124.83127 4131.27817 3125.7464 4131.61602 3126.63723 4132.02446 3127.49799 4132.50083 3128.32309 4133.04205 3129.10719 4133.64461 3129.84519 4134.3046 3130.53231 4135.01774 3131.1641 4135.77941 3131.73645 4136.58466 3132.24567 4137.42828 3132.68843 4138.30478 3133.06187 4139.2085 3133.36358 4140.13356 3133.59159 4141.07397 3133.74442 Z M 4070.57397 3377.24442 L 4071.52363 3377.32108 4072.47637 3377.32108 4073.42603 3377.24442 4074.36644 3377.09159 4075.2915 3376.86358 4076.19522 3376.56187 4077.07172 3376.18843 4077.91534 3375.74567 4078.72059 3375.23645 4079.48226 3374.6641 4080.1954 3374.03231 4080.85539 3373.34519 4081.45795 3372.60719 4081.99917 3371.82309 4082.47554 3370.99799 4082.88398 3370.13723 4083.22183 3369.2464 4083.4869 3368.33127 4083.67747 3367.39777 4083.79231 3366.45197 4083.83068 3365.5 4083.79231 3364.54803 4083.67747 3363.60223 4083.4869 3362.66873 4083.22183 3361.7536 4082.88398 3360.86277 4082.47554 3360.00201 4081.99917 3359.17691 4081.45795 3358.39281 4080.85539 3357.65481 4080.1954 3356.96769 4079.48226 3356.3359 4078.72059 3355.76355 4077.91534 3355.25433 4077.07172 3354.81157 4076.19522 3354.43813 4075.2915 3354.13642 4074.36644 3353.90841 4073.42603 3353.75558 4072.47637 3353.67892 4071.52363 3353.67892 4070.57397 3353.75558 4069.63356 3353.90841 4068.7085 3354.13642 4067.80478 3354.43813 4066.92828 3354.81157 4066.08466 3355.25433 4065.27941 3355.76355 4064.51774 3356.3359 4063.8046 3356.96769 4063.14461 3357.65481 4062.54205 3358.39281 4062.00083 3359.17691 4061.52446 3360.00201 4061.11602 3360.86277 4060.77817 3361.7536 4060.5131 3362.66873 4060.32253 3363.60223 4060.20769 3364.54803 4060.16932 3365.5 4060.20769 3366.45197 4060.32253 3367.39777 4060.5131 3368.33127 4060.77817 3369.2464 4061.11602 3370.13723 4061.52446 3370.99799 4062.00083 3371.82309 4062.54205 3372.60719 4063.14461 3373.34519 4063.8046 3374.03231 4064.51774 3374.6641 4065.27941 3375.23645 4066.08466 3375.74567 4066.92828 3376.18843 4067.80478 3376.56187 4068.7085 3376.86358 4069.63356 3377.09159 4070.57397 3377.24442 Z M 4390.97637 3134.32108 L 4391.92603 3134.24442 4392.86644 3134.09159 4393.7915 3133.86358 4394.69522 3133.56187 4395.57172 3133.18843 4396.41534 3132.74567 4397.22059 3132.23645 4397.98226 3131.6641 4398.6954 3131.03231 4399.35539 3130.34519 4399.95795 3129.60719 4400.49917 3128.82309 4400.97554 3127.99799 4401.38398 3127.13723 4401.72183 3126.2464 4401.9869 3125.33127 4402.17747 3124.39777 4402.29231 3123.45197 4402.33068 3122.5 4402.29231 3121.54803 4402.17747 3120.60223 4401.9869 3119.66873 4401.72183 3118.7536 4401.38398 3117.86277 4400.97554 3117.00201 4400.49917 3116.17691 4399.95795 3115.39281 4399.35539 3114.65481 4398.6954 3113.96769 4397.98226 3113.3359 4397.22059 3112.76355 4396.41534 3112.25433 4395.57172 3111.81157 4394.69522 3111.43813 4393.7915 3111.13642 4392.86644 3110.90841 4391.92603 3110.75558 4390.97637 3110.67892 4390.02363 3110.67892 4389.07397 3110.75558 4388.13356 3110.90841 4387.2085 3111.13642 4386.30478 3111.43813 4385.42828 3111.81157 4384.58466 3112.25433 4383.77941 3112.76355 4383.01774 3113.3359 4382.3046 3113.96769 4381.64461 3114.65481 4381.04205 3115.39281 4380.50083 3116.17691 4380.02446 3117.00201 4379.61602 3117.86277 4379.27817 3118.7536 4379.0131 3119.66873 4378.82253 3120.60223 4378.70769 3121.54803 4378.66932 3122.5 4378.70769 3123.45197 4378.82253 3124.39777 4379.0131 3125.33127 4379.27817 3126.2464 4379.61602 3127.13723 4380.02446 3127.99799 4380.50083 3128.82309 4381.04205 3129.60719 4381.64461 3130.34519 4382.3046 3131.03231 4383.01774 3131.6641 4383.77941 3132.23645 4384.58466 3132.74567 4385.42828 3133.18843 4386.30478 3133.56187 4387.2085 3133.86358 4388.13356 3134.09159 4389.07397 3134.24442 4390.02363 3134.32108 4390.97637 3134.32108 Z M 4558.07397 3382.24442 L 4559.02363 3382.32108 4559.97637 3382.32108 4560.92603 3382.24442 4561.86644 3382.09159 4562.7915 3381.86358 4563.69522 3381.56187 4564.57172 3381.18843 4565.41534 3380.74567 4566.22059 3380.23645 4566.98226 3379.6641 4567.6954 3379.03231 4568.35539 3378.34519 4568.95795 3377.60719 4569.49917 3376.82309 4569.97554 3375.99799 4570.38398 3375.13723 4570.72183 3374.2464 4570.9869 3373.33127 4571.17747 3372.39777 4571.29231 3371.45197 4571.33068 3370.5 4571.29231 3369.54803 4571.17747 3368.60223 4570.9869 3367.66873 4570.72183 3366.7536 4570.38398 3365.86277 4569.97554 3365.00201 4569.49917 3364.17691 4568.95795 3363.39281 4568.35539 3362.65481 4567.6954 3361.96769 4566.98226 3361.3359 4566.22059 3360.76355 4565.41534 3360.25433 4564.57172 3359.81157 4563.69522 3359.43813 4562.7915 3359.13642 4561.86644 3358.90841 4560.92603 3358.75558 4559.97637 3358.67892 4559.02363 3358.67892 4558.07397 3358.75558 4557.13356 3358.90841 4556.2085 3359.13642 4555.30478 3359.43813 4554.42828 3359.81157 4553.58466 3360.25433 4552.77941 3360.76355 4552.01774 3361.3359 4551.3046 3361.96769 4550.64461 3362.65481 4550.04205 3363.39281 4549.50083 3364.17691 4549.02446 3365.00201 4548.61602 3365.86277 4548.27817 3366.7536 4548.0131 3367.66873 4547.82253 3368.60223 4547.70769 3369.54803 4547.66932 3370.5 4547.70769 3371.45197 4547.82253 3372.39777 4548.0131 3373.33127 4548.27817 3374.2464 4548.61602 3375.13723 4549.02446 3375.99799 4549.50083 3376.82309 4550.04205 3377.60719 4550.64461 3378.34519 4551.3046 3379.03231 4552.01774 3379.6641 4552.77941 3380.23645 4553.58466 3380.74567 4554.42828 3381.18843 4555.30478 3381.56187 4556.2085 3381.86358 4557.13356 3382.09159 4558.07397 3382.24442 Z " stroke-width="0" layerid="1" attachedcopperid="gge3593" c_shapetype="line" id="gge3593_0" class=""></path><polyline points="4196.5 3161.5 4293.106 3161.5 4293.606 3162" stroke-width="5.9055"  stroke-linecap="round" fill="none" layerid="1" net="5V" id="gge3229" locked="0" /><polyline points="4293.606 3162 4293.606 3083.209 4293.815 3083" stroke-width="7.874"  stroke-linecap="round" fill="none" layerid="1" net="5V" id="gge3238" locked="0" /><polyline points="4169 3342.5 4192.1851 3342.5" stroke-width="5.9055"  stroke-linecap="round" fill="none" layerid="1" net="12V" id="gge3428" locked="0" /><polyline points="4149.315 3342.5 4172.5 3342.5" stroke-width="5.9055"  stroke-linecap="round" fill="none" layerid="1" net="12V" id="gge3425" locked="0" /><polyline points="4105.85 3324.75 4105.85 3333.2499 4108.8501 3336.25" stroke-width="5.9055"  stroke-linecap="round" fill="none" layerid="1" net="GND" id="gge3398" locked="0" /><polyline points="4505 3146.13 4494.39 3162" stroke-width="7.874"  stroke-linecap="round" fill="none" layerid="1" net="D1_2" id="gge3277" locked="0" /><polyline points="4077.315 3083 4097 3083" stroke-width="11.811"  stroke-linecap="round" fill="none" layerid="1" net="GND" id="gge2932" locked="0" /><polyline points="4116.685 3083 4097 3083" stroke-width="11.811"  stroke-linecap="round" fill="none" layerid="1" net="GND" id="gge2935" locked="0" /><polyline points="4150.815 3083 4170.5 3083" stroke-width="11.811"  stroke-linecap="round" fill="none" layerid="1" net="GND" id="gge2941" locked="0" /><polyline points="4170.5 3083 4190.185 3083" stroke-width="11.811"  stroke-linecap="round" fill="none" layerid="1" net="GND" id="gge2944" locked="0" /><polyline points="4190.1851 3083 4186.5 3086.6851 4186.5 3161.5" stroke-width="5.9055"  stroke-linecap="round" fill="none" layerid="1" net="GND" id="gge2962" locked="0" /><polyline points="4176.5 3161.5 4120.3999 3161.5 4120.1499 3161.25" stroke-width="5.9055"  stroke-linecap="round" fill="none" layerid="1" net="12+INP" id="gge2965" locked="0" /><polyline points="4096.85 3161.25 4096.85 3168.25 4108.35 3179.75" stroke-width="11.811"  stroke-linecap="round" fill="none" layerid="1" net="GND" id="gge2974" locked="0" /><polyline points="4096.85 3161.25 4096.85 3128.28 4096.85 3083.15 4097 3083" stroke-width="11.811"  stroke-linecap="round" fill="none" layerid="1" net="GND" id="gge2968" locked="0" /><polyline points="4116.685 3083 4150.815 3083" stroke-width="11.811"  stroke-linecap="round" fill="none" layerid="1" net="GND" id="gge2938" locked="0" /><polyline points="4190.19 3083 4204.27 3083 4207.97 3083 4225.31 3083" stroke-width="11.811"  stroke-linecap="round" fill="none" layerid="1" net="GND" id="gge2947" locked="0" /><polyline points="4225.31 3083 4235.38 3083 4245 3083" stroke-width="11.811"  stroke-linecap="round" fill="none" layerid="1" net="GND" id="gge2950" locked="0" /><polyline points="4245 3083 4257.23 3083 4257.23 3083 4264.69 3083" stroke-width="11.811"  stroke-linecap="round" fill="none" layerid="1" net="GND" id="gge2953" locked="0" /><polyline points="4186.5 3161.5 4186.5 3186 4197.5 3197 4197.5 3204.394" stroke-width="5.9055"  stroke-linecap="round" fill="none" layerid="1" net="GND" id="gge3004" locked="0" /><polyline points="4197.606 3300 4197.606 3254.5" stroke-width="7.874"  stroke-linecap="round" fill="none" layerid="1" net="GND" id="gge3160" locked="0" /><polyline points="4197.5 3204.394 4197.5 3254.394 4197.606 3254.5" stroke-width="5.9055"  stroke-linecap="round" fill="none" layerid="1" net="GND" id="gge3163" locked="0" /><polyline points="4197.606 3300 4130.6 3300 4105.85 3324.75" stroke-width="7.874"  stroke-linecap="round" fill="none" layerid="1" net="GND" id="gge3169" locked="0" /><polyline points="4129.1499 3324.75 4131.565 3324.75 4149.315 3342.5" stroke-width="7.874"  stroke-linecap="round" fill="none" layerid="1" net="12V" id="gge3175" locked="0" /><polyline points="4294.106 3214 4294.106 3162.5 4293.606 3162" stroke-width="7.874"  stroke-linecap="round" fill="none" layerid="1" net="5V" id="gge3235" locked="0" /><polyline points="4293.815 3083 4313.5 3083" stroke-width="11.811"  stroke-linecap="round" fill="none" layerid="1" net="5V" id="gge3241" locked="0" /><polyline points="4313.5 3083 4333.185 3083" stroke-width="11.811"  stroke-linecap="round" fill="none" layerid="1" net="5V" id="gge3244" locked="0" /><polyline points="4333.185 3083 4363.315 3083" stroke-width="11.811"  stroke-linecap="round" fill="none" layerid="1" net="5V" id="gge3247" locked="0" /><polyline points="4363.315 3083 4383 3083" stroke-width="11.811"  stroke-linecap="round" fill="none" layerid="1" net="5V" id="gge3250" locked="0" /><polyline points="4383 3083 4402.685 3083" stroke-width="11.811"  stroke-linecap="round" fill="none" layerid="1" net="5V" id="gge3253" locked="0" /><polyline points="4402.685 3083 4433.315 3083" stroke-width="11.811"  stroke-linecap="round" fill="none" layerid="1" net="5V" id="gge3256" locked="0" /><polyline points="4433.315 3083 4453 3083" stroke-width="11.811"  stroke-linecap="round" fill="none" layerid="1" net="5V" id="gge3259" locked="0" /><polyline points="4453 3083 4472.685 3083" stroke-width="11.811"  stroke-linecap="round" fill="none" layerid="1" net="5V" id="gge3262" locked="0" /><polyline points="4505.315 3082.5 4505.315 3111.559 4505 3111.874" stroke-width="7.874"  stroke-linecap="round" fill="none" layerid="1" net="D1" id="gge3265" locked="0" /><polyline points="4525 3082.5 4525 3111.874" stroke-width="7.874"  stroke-linecap="round" fill="none" layerid="1" net="D2" id="gge3268" locked="0" /><polyline points="4544.685 3082.5 4544.685 3111.689 4544.5 3111.874" stroke-width="7.874"  stroke-linecap="round" fill="none" layerid="1" net="D3" id="gge3271" locked="0" /><polyline points="4525 3146.126 4505 3146.126" stroke-width="7.874"  stroke-linecap="round" fill="none" layerid="1" net="D1_2" id="gge3274" locked="0" /><polyline points="4544.5 3146.126 4544.5 3167.874" stroke-width="7.874"  stroke-linecap="round" fill="none" layerid="1" net="D3_2" id="gge3280" locked="0" /><polyline points="4398.39 3300 4415.17 3300 4447.5 3300" stroke-width="5.9055"  stroke-linecap="round" fill="none" layerid="1" net="LEDB" id="gge3286" locked="0" /><polyline points="4398.393 3254.5 4445.5 3254.5" stroke-width="5.9055"  stroke-linecap="round" fill="none" layerid="1" net="LEDR" id="gge3289" locked="0" /><polyline points="4544.5 3202.126 4544.5 3260.662 4544.656 3260.818" stroke-width="5.9055"  stroke-linecap="round" fill="none" layerid="1" net="D4" id="gge3304" locked="0" /><polyline points="4545.344 3300.182 4447.682 3300.182 4447.5 3300" stroke-width="5.9055"  stroke-linecap="round" fill="none" layerid="1" net="LEDB" id="gge3307" locked="0" /><polyline points="4494.393 3162 4494.393 3198.0205 4447.9127 3244.5008" stroke-width="5.9055"  stroke-linecap="round" fill="none" layerid="1" net="D1_2" id="gge3310" locked="0" /><polyline points="4544.5 3167.87 4544.5 3168" stroke-width="5.9055"  stroke-linecap="round" fill="none" layerid="1" net="D3_2" id="gge3322" locked="0" /><polyline points="4406.5 3330.5 4380 3304 4380 3290 4447.5 3290" stroke-width="5.9055"  stroke-linecap="round" fill="none" layerid="1" net="D3_2" id="gge3331" locked="0" /><polyline points="4494.893 3214 4494.893 3214 4544.5 3167.874" stroke-width="5.9055"  stroke-linecap="round" fill="none" layerid="1" net="D3_2" id="gge3334" locked="0" /><polyline points="4448.0874 3254.4993 4495.999 3254.4993 4521.9998 3280.5 4545 3280.5" stroke-width="5.9055"  stroke-linecap="round" fill="none" layerid="1" net="LEDR" id="gge3337" locked="0" /><polyline points="4544.5 3167.87 4544.5 3168 4569.5 3193 4569.5 3314.5 4553.5 3330.5 4406.5 3330.5" stroke-width="5.9055"  stroke-linecap="round" fill="none" layerid="1" net="D3_2" id="gge3325" locked="0" /><g c_partid="part_pad" c_etype="pinpart" c_origin="4505,3111.874" layerid="11" number="1" net="D1" plated ="Y"  id="gge69" locked="0" c_rotation="270" c_width="7.0866" c_height="7.0866" title="D1" c_shape="ELLIPSE" pasteexpansion="0" solderexpansion="0.2"><ellipse c_etype="pad_shell" cx="4505" cy="3111.874" rx="3.5433" ry="3.5433" layerid="11" stroke-width="0"/><circle c_etype="pad_hole" cx="4505" cy="3111.8738" r="1.9685" layerid="11" stroke-width="0"/></g><g c_partid="part_pad" c_etype="pinpart" c_origin="4505,3146.126" layerid="11" number="2" net="D1_2" plated ="Y"  id="gge84" locked="0" c_rotation="270" c_width="7.0866" c_height="7.0866" title="D1_2" c_shape="ELLIPSE" pasteexpansion="0" solderexpansion="0.2"><ellipse c_etype="pad_shell" cx="4505" cy="3146.126" rx="3.5433" ry="3.5433" layerid="11" stroke-width="0"/><circle c_etype="pad_hole" cx="4505" cy="3146.1262" r="1.9685" layerid="11" stroke-width="0"/></g><g c_partid="part_pad" c_etype="pinpart" c_origin="4525,3111.874" layerid="11" number="1" net="D2" plated ="Y"  id="gge165" locked="0" c_rotation="270" c_width="7.0866" c_height="7.0866" title="D2" c_shape="ELLIPSE" pasteexpansion="0" solderexpansion="0.2"><ellipse c_etype="pad_shell" cx="4525" cy="3111.874" rx="3.5433" ry="3.5433" layerid="11" stroke-width="0"/><circle c_etype="pad_hole" cx="4525" cy="3111.8738" r="1.9685" layerid="11" stroke-width="0"/></g><g c_partid="part_pad" c_etype="pinpart" c_origin="4525,3146.126" layerid="11" number="2" net="D1_2" plated ="Y"  id="gge180" locked="0" c_rotation="270" c_width="7.0866" c_height="7.0866" title="D1_2" c_shape="ELLIPSE" pasteexpansion="0" solderexpansion="0.2"><ellipse c_etype="pad_shell" cx="4525" cy="3146.126" rx="3.5433" ry="3.5433" layerid="11" stroke-width="0"/><circle c_etype="pad_hole" cx="4525" cy="3146.1262" r="1.9685" layerid="11" stroke-width="0"/></g><g c_partid="part_pad" c_etype="pinpart" c_origin="4544.5,3111.874" layerid="11" number="1" net="D3" plated ="Y"  id="gge261" locked="0" c_rotation="270" c_width="7.0866" c_height="7.0866" title="D3" c_shape="ELLIPSE" pasteexpansion="0" solderexpansion="0.2"><ellipse c_etype="pad_shell" cx="4544.5" cy="3111.874" rx="3.5433" ry="3.5433" layerid="11" stroke-width="0"/><circle c_etype="pad_hole" cx="4544.5" cy="3111.8738" r="1.9685" layerid="11" stroke-width="0"/></g><g c_partid="part_pad" c_etype="pinpart" c_origin="4544.5,3146.126" layerid="11" number="2" net="D3_2" plated ="Y"  id="gge276" locked="0" c_rotation="270" c_width="7.0866" c_height="7.0866" title="D3_2" c_shape="ELLIPSE" pasteexpansion="0" solderexpansion="0.2"><ellipse c_etype="pad_shell" cx="4544.5" cy="3146.126" rx="3.5433" ry="3.5433" layerid="11" stroke-width="0"/><circle c_etype="pad_hole" cx="4544.5" cy="3146.1262" r="1.9685" layerid="11" stroke-width="0"/></g><g c_partid="part_pad" c_etype="pinpart" c_origin="4544.5,3202.126" layerid="11" number="1" net="D4" plated ="Y"  id="gge357" locked="0" c_rotation="90" c_width="7.0866" c_height="7.0866" title="D4" c_shape="ELLIPSE" pasteexpansion="0" solderexpansion="0.2"><ellipse c_etype="pad_shell" cx="4544.5" cy="3202.126" rx="3.5433" ry="3.5433" layerid="11" stroke-width="0"/><circle c_etype="pad_hole" cx="4544.5" cy="3202.1262" r="1.9685" layerid="11" stroke-width="0"/></g><g c_partid="part_pad" c_etype="pinpart" c_origin="4544.5,3167.874" layerid="11" number="2" net="D3_2" plated ="Y"  id="gge372" locked="0" c_rotation="90" c_width="7.0866" c_height="7.0866" title="D3_2" c_shape="ELLIPSE" pasteexpansion="0" solderexpansion="0.2"><ellipse c_etype="pad_shell" cx="4544.5" cy="3167.874" rx="3.5433" ry="3.5433" layerid="11" stroke-width="0"/><circle c_etype="pad_hole" cx="4544.5" cy="3167.8738" r="1.9685" layerid="11" stroke-width="0"/></g><g c_partid="part_pad" c_etype="pinpart" c_origin="4447.913,3244.501" layerid="11" number="A" net="D1_2" plated ="Y"  id="gge426" locked="0" c_rotation="271" c_width="5.51" c_height="5.51" title="D1_2" c_shape="ELLIPSE" pasteexpansion="0" solderexpansion="0.2"><ellipse c_etype="pad_shell" cx="4447.913" cy="3244.501" rx="2.755" ry="2.755" layerid="11" stroke-width="0"/><circle c_etype="pad_hole" cx="4447.9127" cy="3244.5008" r="1.97" layerid="11" stroke-width="0"/></g><g c_partid="part_pad" c_etype="pinpart" c_origin="4448.087,3254.499" layerid="11" number="K" net="LEDR" plated ="Y"  id="gge441" locked="0" c_rotation="271" c_width="5.51" c_height="5.51" title="LEDR" c_shape="ELLIPSE" pasteexpansion="0" solderexpansion="0.2"><ellipse c_etype="pad_shell" cx="4448.087" cy="3254.499" rx="2.755" ry="2.755" layerid="11" stroke-width="0"/><circle c_etype="pad_hole" cx="4448.0873" cy="3254.4992" r="1.97" layerid="11" stroke-width="0"/></g><g c_partid="part_pad" c_etype="pinpart" c_origin="4447.5,3290" layerid="11" number="A" net="D3_2" plated ="Y"  id="gge501" locked="0" c_rotation="270" c_width="5.51" c_height="5.51" title="D3_2" c_shape="ELLIPSE" pasteexpansion="0" solderexpansion="0.2"><ellipse c_etype="pad_shell" cx="4447.5" cy="3290" rx="2.755" ry="2.755" layerid="11" stroke-width="0"/><circle c_etype="pad_hole" cx="4447.5" cy="3290" r="1.97" layerid="11" stroke-width="0"/></g><g c_partid="part_pad" c_etype="pinpart" c_origin="4447.5,3300" layerid="11" number="K" net="LEDB" plated ="Y"  id="gge516" locked="0" c_rotation="270" c_width="5.51" c_height="5.51" title="LEDB" c_shape="ELLIPSE" pasteexpansion="0" solderexpansion="0.2"><ellipse c_etype="pad_shell" cx="4447.5" cy="3300" rx="2.755" ry="2.755" layerid="11" stroke-width="0"/><circle c_etype="pad_hole" cx="4447.5" cy="3300" r="1.97" layerid="11" stroke-width="0"/></g><g c_partid="part_pad" c_etype="pinpart" c_origin="4398.393,3254.5" layerid="11" number="1" net="LEDR" plated ="Y"  id="gge567" locked="0" c_rotation="180" c_width="7.874" c_height="7.874" title="LEDR" c_shape="ELLIPSE" pasteexpansion="0" solderexpansion="0.19685"><ellipse c_etype="pad_shell" cx="4398.393" cy="3254.5" rx="3.937" ry="3.937" layerid="11" stroke-width="0"/><circle c_etype="pad_hole" cx="4398.3935" cy="3254.5" r="2.3622" layerid="11" stroke-width="0"/></g><g c_partid="part_pad" c_etype="pinpart" c_origin="4197.606,3254.5" layerid="11" number="2" net="GND" plated ="Y"  id="gge582" locked="0" c_rotation="180" c_width="7.874" c_height="7.874" title="GND" c_shape="ELLIPSE" pasteexpansion="0" solderexpansion="0.19685"><ellipse c_etype="pad_shell" cx="4197.606" cy="3254.5" rx="3.937" ry="3.937" layerid="11" stroke-width="0"/><circle c_etype="pad_hole" cx="4197.6065" cy="3254.5" r="2.3622" layerid="11" stroke-width="0"/></g><g c_partid="part_pad" c_etype="pinpart" c_origin="4398.393,3300" layerid="11" number="1" net="LEDB" plated ="Y"  id="gge627" locked="0" c_rotation="180" c_width="7.874" c_height="7.874" title="LEDB" c_shape="ELLIPSE" pasteexpansion="0" solderexpansion="0.19685"><ellipse c_etype="pad_shell" cx="4398.393" cy="3300" rx="3.937" ry="3.937" layerid="11" stroke-width="0"/><circle c_etype="pad_hole" cx="4398.3935" cy="3300" r="2.3622" layerid="11" stroke-width="0"/></g><g c_partid="part_pad" c_etype="pinpart" c_origin="4197.606,3300" layerid="11" number="2" net="GND" plated ="Y"  id="gge642" locked="0" c_rotation="180" c_width="7.874" c_height="7.874" title="GND" c_shape="ELLIPSE" pasteexpansion="0" solderexpansion="0.19685"><ellipse c_etype="pad_shell" cx="4197.606" cy="3300" rx="3.937" ry="3.937" layerid="11" stroke-width="0"/><circle c_etype="pad_hole" cx="4197.6065" cy="3300" r="2.3622" layerid="11" stroke-width="0"/></g><g c_partid="part_pad" c_etype="pinpart" c_origin="4494.393,3162" layerid="11" number="1" net="D1_2" plated ="Y"  id="gge687" locked="0" c_rotation="180" c_width="7.874" c_height="7.874" title="D1_2" c_shape="ELLIPSE" pasteexpansion="0" solderexpansion="0.19685"><ellipse c_etype="pad_shell" cx="4494.393" cy="3162" rx="3.937" ry="3.937" layerid="11" stroke-width="0"/><circle c_etype="pad_hole" cx="4494.3935" cy="3162" r="2.3622" layerid="11" stroke-width="0"/></g><g c_partid="part_pad" c_etype="pinpart" c_origin="4293.606,3162" layerid="11" number="2" net="5V" plated ="Y"  id="gge702" locked="0" c_rotation="180" c_width="7.874" c_height="7.874" title="5V" c_shape="ELLIPSE" pasteexpansion="0" solderexpansion="0.19685"><ellipse c_etype="pad_shell" cx="4293.606" cy="3162" rx="3.937" ry="3.937" layerid="11" stroke-width="0"/><circle c_etype="pad_hole" cx="4293.6065" cy="3162" r="2.3622" layerid="11" stroke-width="0"/></g><g c_partid="part_pad" c_etype="pinpart" c_origin="4494.893,3214" layerid="11" number="1" net="D3_2" plated ="Y"  id="gge747" locked="0" c_rotation="180" c_width="7.874" c_height="7.874" title="D3_2" c_shape="ELLIPSE" pasteexpansion="0" solderexpansion="0.19685"><ellipse c_etype="pad_shell" cx="4494.893" cy="3214" rx="3.937" ry="3.937" layerid="11" stroke-width="0"/><circle c_etype="pad_hole" cx="4494.8935" cy="3214" r="2.3622" layerid="11" stroke-width="0"/></g><g c_partid="part_pad" c_etype="pinpart" c_origin="4294.106,3214" layerid="11" number="2" net="5V" plated ="Y"  id="gge762" locked="0" c_rotation="180" c_width="7.874" c_height="7.874" title="5V" c_shape="ELLIPSE" pasteexpansion="0" solderexpansion="0.19685"><ellipse c_etype="pad_shell" cx="4294.106" cy="3214" rx="3.937" ry="3.937" layerid="11" stroke-width="0"/><circle c_etype="pad_hole" cx="4294.1065" cy="3214" r="2.3622" layerid="11" stroke-width="0"/></g><g c_partid="part_pad" c_etype="pinpart" c_origin="4186.5,3161.5" layerid="11" number="2" net="GND" plated ="Y"  id="gge831" locked="0" c_rotation="0" c_width="7.874" c_height="5.9055" title="GND" c_shape="OVAL" pasteexpansion="0" solderexpansion="0.2"><polyline  c_etype="pad_shell" points="4185.5157 3161.5 4187.4843 3161.5" layerid="11" stroke-width="5.9055" /><polyline c_etype="pad_hole" points="4185.516 3161.4995 4187.4846 3161.4995" layerid="11" stroke-width="3.937"></polyline></g><g c_partid="part_pad" c_etype="pinpart" c_origin="4196.5,3161.5" layerid="11" number="3" net="5V" plated ="Y"  id="gge846" locked="0" c_rotation="0" c_width="7.874" c_height="5.9055" title="5V" c_shape="OVAL" pasteexpansion="0" solderexpansion="0.2"><polyline  c_etype="pad_shell" points="4195.5157 3161.5 4197.4843 3161.5" layerid="11" stroke-width="5.9055" /><polyline c_etype="pad_hole" points="4195.516 3161.4995 4197.4846 3161.4995" layerid="11" stroke-width="3.937"></polyline></g><g c_partid="part_pad" c_etype="pinpart" c_origin="4176.5,3161.5" layerid="11" number="1" net="12+INP" plated ="Y"  id="gge861" locked="0" c_rotation="0" c_width="7.874" c_height="5.9055" title="12+INP" c_shape="RECT" pasteexpansion="0" solderexpansion="0.2"><polygon  c_etype="pad_shell" points="4172.5632 3158.5469 4180.4372 3158.5469 4180.4372 3164.4525 4172.5632 3164.4525" layerid="11" stroke-width="0" /><polyline c_etype="pad_hole" points="4175.516 3161.4995 4177.4846 3161.4995" layerid="11" stroke-width="3.937"></polyline></g><g c_partid="part_pad" c_etype="pinpart" c_origin="4117.35,3343.25" layerid="11" number="RING_SW" net="GND" plated ="Y"  id="gge906" locked="0" c_rotation="270" c_width="18.9" c_height="18.9" title="GND" c_shape="ELLIPSE" pasteexpansion="0" solderexpansion="0.2"><ellipse c_etype="pad_shell" cx="4117.35" cy="3343.25" rx="9.45" ry="9.45" layerid="11" stroke-width="0"/><circle c_etype="pad_hole" cx="4117.35" cy="3343.25" r="5.91" layerid="11" stroke-width="0"/></g><g c_partid="part_pad" c_etype="pinpart" c_origin="4129.15,3324.75" layerid="11" number="TIP" net="12V" plated ="Y"  id="gge921" locked="0" c_rotation="270" c_width="18.9" c_height="18.9" title="12V" c_shape="ELLIPSE" pasteexpansion="0" solderexpansion="0.2"><ellipse c_etype="pad_shell" cx="4129.15" cy="3324.75" rx="9.45" ry="9.45" layerid="11" stroke-width="0"/><circle c_etype="pad_hole" cx="4129.15" cy="3324.75" r="5.91" layerid="11" stroke-width="0"/></g><g c_partid="part_pad" c_etype="pinpart" c_origin="4105.85,3324.75" layerid="11" number="RING" net="GND" plated ="Y"  id="gge936" locked="0" c_rotation="270" c_width="18.9" c_height="18.9" title="GND" c_shape="ELLIPSE" pasteexpansion="0" solderexpansion="0.2"><ellipse c_etype="pad_shell" cx="4105.85" cy="3324.75" rx="9.45" ry="9.45" layerid="11" stroke-width="0"/><circle c_etype="pad_hole" cx="4105.85" cy="3324.75" r="5.91" layerid="11" stroke-width="0"/></g><g c_partid="part_pad" c_etype="pinpart" c_origin="4108.35,3179.75" layerid="11" number="RING_SW" net="GND" plated ="Y"  id="gge981" locked="0" c_rotation="270" c_width="18.9" c_height="18.9" title="GND" c_shape="ELLIPSE" pasteexpansion="0" solderexpansion="0.2"><ellipse c_etype="pad_shell" cx="4108.35" cy="3179.75" rx="9.45" ry="9.45" layerid="11" stroke-width="0"/><circle c_etype="pad_hole" cx="4108.35" cy="3179.75" r="5.91" layerid="11" stroke-width="0"/></g><g c_partid="part_pad" c_etype="pinpart" c_origin="4120.15,3161.25" layerid="11" number="TIP" net="12+INP" plated ="Y"  id="gge996" locked="0" c_rotation="270" c_width="18.9" c_height="18.9" title="12+INP" c_shape="ELLIPSE" pasteexpansion="0" solderexpansion="0.2"><ellipse c_etype="pad_shell" cx="4120.15" cy="3161.25" rx="9.45" ry="9.45" layerid="11" stroke-width="0"/><circle c_etype="pad_hole" cx="4120.15" cy="3161.25" r="5.91" layerid="11" stroke-width="0"/></g><g c_partid="part_pad" c_etype="pinpart" c_origin="4096.85,3161.25" layerid="11" number="RING" net="GND" plated ="Y"  id="gge1011" locked="0" c_rotation="270" c_width="18.9" c_height="18.9" title="GND" c_shape="ELLIPSE" pasteexpansion="0" solderexpansion="0.2"><ellipse c_etype="pad_shell" cx="4096.85" cy="3161.25" rx="9.45" ry="9.45" layerid="11" stroke-width="0"/><circle c_etype="pad_hole" cx="4096.85" cy="3161.25" r="5.91" layerid="11" stroke-width="0"/></g><g c_partid="part_pad" c_etype="pinpart" c_origin="4505.315,3082.5" layerid="11" number="1" net="D1" plated ="Y"  id="gge1113" locked="0" c_rotation="0" c_width="9.0551" c_height="9.0551" title="D1" c_shape="ELLIPSE" pasteexpansion="0" solderexpansion="0.2"><ellipse c_etype="pad_shell" cx="4505.315" cy="3082.5" rx="4.52755" ry="4.52755" layerid="11" stroke-width="0"/><circle c_etype="pad_hole" cx="4505.315" cy="3082.5" r="2.9528" layerid="11" stroke-width="0"/></g><g c_partid="part_pad" c_etype="pinpart" c_origin="4525,3082.5" layerid="11" number="2" net="D2" plated ="Y"  id="gge1128" locked="0" c_rotation="0" c_width="9.0551" c_height="9.0551" title="D2" c_shape="ELLIPSE" pasteexpansion="0" solderexpansion="0.2"><ellipse c_etype="pad_shell" cx="4525" cy="3082.5" rx="4.52755" ry="4.52755" layerid="11" stroke-width="0"/><circle c_etype="pad_hole" cx="4525" cy="3082.5" r="2.9528" layerid="11" stroke-width="0"/></g><g c_partid="part_pad" c_etype="pinpart" c_origin="4544.685,3082.5" layerid="11" number="3" net="D3" plated ="Y"  id="gge1143" locked="0" c_rotation="0" c_width="9.0551" c_height="9.0551" title="D3" c_shape="ELLIPSE" pasteexpansion="0" solderexpansion="0.2"><ellipse c_etype="pad_shell" cx="4544.685" cy="3082.5" rx="4.52755" ry="4.52755" layerid="11" stroke-width="0"/><circle c_etype="pad_hole" cx="4544.685" cy="3082.5" r="2.9528" layerid="11" stroke-width="0"/></g><g c_partid="part_pad" c_etype="pinpart" c_origin="4188.685,3342.5" layerid="11" number="1" net="12V" plated ="Y"  id="gge1245" locked="0" c_rotation="180" c_width="9.0551" c_height="9.0551" title="12V" c_shape="ELLIPSE" pasteexpansion="0" solderexpansion="0.2"><ellipse c_etype="pad_shell" cx="4188.685" cy="3342.5" rx="4.52755" ry="4.52755" layerid="11" stroke-width="0"/><circle c_etype="pad_hole" cx="4188.685" cy="3342.5" r="2.9528" layerid="11" stroke-width="0"/></g><g c_partid="part_pad" c_etype="pinpart" c_origin="4169,3342.5" layerid="11" number="2" net="12V" plated ="Y"  id="gge1260" locked="0" c_rotation="180" c_width="9.0551" c_height="9.0551" title="12V" c_shape="ELLIPSE" pasteexpansion="0" solderexpansion="0.2"><ellipse c_etype="pad_shell" cx="4169" cy="3342.5" rx="4.52755" ry="4.52755" layerid="11" stroke-width="0"/><circle c_etype="pad_hole" cx="4169" cy="3342.5" r="2.9528" layerid="11" stroke-width="0"/></g><g c_partid="part_pad" c_etype="pinpart" c_origin="4149.315,3342.5" layerid="11" number="3" net="12V" plated ="Y"  id="gge1275" locked="0" c_rotation="180" c_width="9.0551" c_height="9.0551" title="12V" c_shape="ELLIPSE" pasteexpansion="0" solderexpansion="0.2"><ellipse c_etype="pad_shell" cx="4149.315" cy="3342.5" rx="4.52755" ry="4.52755" layerid="11" stroke-width="0"/><circle c_etype="pad_hole" cx="4149.315" cy="3342.5" r="2.9528" layerid="11" stroke-width="0"/></g><g c_partid="part_pad" c_etype="pinpart" c_origin="4225.315,3083" layerid="11" number="1" net="GND" plated ="Y"  id="gge1377" locked="0" c_rotation="0" c_width="9.0551" c_height="9.0551" title="GND" c_shape="ELLIPSE" pasteexpansion="0" solderexpansion="0.2"><ellipse c_etype="pad_shell" cx="4225.315" cy="3083" rx="4.52755" ry="4.52755" layerid="11" stroke-width="0"/><circle c_etype="pad_hole" cx="4225.315" cy="3083" r="2.9528" layerid="11" stroke-width="0"/></g><g c_partid="part_pad" c_etype="pinpart" c_origin="4245,3083" layerid="11" number="2" net="GND" plated ="Y"  id="gge1392" locked="0" c_rotation="0" c_width="9.0551" c_height="9.0551" title="GND" c_shape="ELLIPSE" pasteexpansion="0" solderexpansion="0.2"><ellipse c_etype="pad_shell" cx="4245" cy="3083" rx="4.52755" ry="4.52755" layerid="11" stroke-width="0"/><circle c_etype="pad_hole" cx="4245" cy="3083" r="2.9528" layerid="11" stroke-width="0"/></g><g c_partid="part_pad" c_etype="pinpart" c_origin="4264.685,3083" layerid="11" number="3" net="GND" plated ="Y"  id="gge1407" locked="0" c_rotation="0" c_width="9.0551" c_height="9.0551" title="GND" c_shape="ELLIPSE" pasteexpansion="0" solderexpansion="0.2"><ellipse c_etype="pad_shell" cx="4264.685" cy="3083" rx="4.52755" ry="4.52755" layerid="11" stroke-width="0"/><circle c_etype="pad_hole" cx="4264.685" cy="3083" r="2.9528" layerid="11" stroke-width="0"/></g><g c_partid="part_pad" c_etype="pinpart" c_origin="4078.315,3083" layerid="11" number="1" net="GND" plated ="Y"  id="gge1509" locked="0" c_rotation="0" c_width="9.0551" c_height="9.0551" title="GND" c_shape="ELLIPSE" pasteexpansion="0" solderexpansion="0.2"><ellipse c_etype="pad_shell" cx="4078.315" cy="3083" rx="4.52755" ry="4.52755" layerid="11" stroke-width="0"/><circle c_etype="pad_hole" cx="4078.315" cy="3083" r="2.9528" layerid="11" stroke-width="0"/></g><g c_partid="part_pad" c_etype="pinpart" c_origin="4098,3083" layerid="11" number="2" net="GND" plated ="Y"  id="gge1524" locked="0" c_rotation="0" c_width="9.0551" c_height="9.0551" title="GND" c_shape="ELLIPSE" pasteexpansion="0" solderexpansion="0.2"><ellipse c_etype="pad_shell" cx="4098" cy="3083" rx="4.52755" ry="4.52755" layerid="11" stroke-width="0"/><circle c_etype="pad_hole" cx="4098" cy="3083" r="2.9528" layerid="11" stroke-width="0"/></g><g c_partid="part_pad" c_etype="pinpart" c_origin="4117.685,3083" layerid="11" number="3" net="GND" plated ="Y"  id="gge1539" locked="0" c_rotation="0" c_width="9.0551" c_height="9.0551" title="GND" c_shape="ELLIPSE" pasteexpansion="0" solderexpansion="0.2"><ellipse c_etype="pad_shell" cx="4117.685" cy="3083" rx="4.52755" ry="4.52755" layerid="11" stroke-width="0"/><circle c_etype="pad_hole" cx="4117.685" cy="3083" r="2.9528" layerid="11" stroke-width="0"/></g><g c_partid="part_pad" c_etype="pinpart" c_origin="4150.815,3083" layerid="11" number="1" net="GND" plated ="Y"  id="gge1641" locked="0" c_rotation="0" c_width="9.0551" c_height="9.0551" title="GND" c_shape="ELLIPSE" pasteexpansion="0" solderexpansion="0.2"><ellipse c_etype="pad_shell" cx="4150.815" cy="3083" rx="4.52755" ry="4.52755" layerid="11" stroke-width="0"/><circle c_etype="pad_hole" cx="4150.815" cy="3083" r="2.9528" layerid="11" stroke-width="0"/></g><g c_partid="part_pad" c_etype="pinpart" c_origin="4170.5,3083" layerid="11" number="2" net="GND" plated ="Y"  id="gge1656" locked="0" c_rotation="0" c_width="9.0551" c_height="9.0551" title="GND" c_shape="ELLIPSE" pasteexpansion="0" solderexpansion="0.2"><ellipse c_etype="pad_shell" cx="4170.5" cy="3083" rx="4.52755" ry="4.52755" layerid="11" stroke-width="0"/><circle c_etype="pad_hole" cx="4170.5" cy="3083" r="2.9528" layerid="11" stroke-width="0"/></g><g c_partid="part_pad" c_etype="pinpart" c_origin="4190.185,3083" layerid="11" number="3" net="GND" plated ="Y"  id="gge1671" locked="0" c_rotation="0" c_width="9.0551" c_height="9.0551" title="GND" c_shape="ELLIPSE" pasteexpansion="0" solderexpansion="0.2"><ellipse c_etype="pad_shell" cx="4190.185" cy="3083" rx="4.52755" ry="4.52755" layerid="11" stroke-width="0"/><circle c_etype="pad_hole" cx="4190.185" cy="3083" r="2.9528" layerid="11" stroke-width="0"/></g><g c_partid="part_pad" c_etype="pinpart" c_origin="4293.815,3083" layerid="11" number="1" net="5V" plated ="Y"  id="gge1773" locked="0" c_rotation="0" c_width="9.0551" c_height="9.0551" title="5V" c_shape="ELLIPSE" pasteexpansion="0" solderexpansion="0.2"><ellipse c_etype="pad_shell" cx="4293.815" cy="3083" rx="4.52755" ry="4.52755" layerid="11" stroke-width="0"/><circle c_etype="pad_hole" cx="4293.815" cy="3083" r="2.9528" layerid="11" stroke-width="0"/></g><g c_partid="part_pad" c_etype="pinpart" c_origin="4313.5,3083" layerid="11" number="2" net="5V" plated ="Y"  id="gge1788" locked="0" c_rotation="0" c_width="9.0551" c_height="9.0551" title="5V" c_shape="ELLIPSE" pasteexpansion="0" solderexpansion="0.2"><ellipse c_etype="pad_shell" cx="4313.5" cy="3083" rx="4.52755" ry="4.52755" layerid="11" stroke-width="0"/><circle c_etype="pad_hole" cx="4313.5" cy="3083" r="2.9528" layerid="11" stroke-width="0"/></g><g c_partid="part_pad" c_etype="pinpart" c_origin="4333.185,3083" layerid="11" number="3" net="5V" plated ="Y"  id="gge1803" locked="0" c_rotation="0" c_width="9.0551" c_height="9.0551" title="5V" c_shape="ELLIPSE" pasteexpansion="0" solderexpansion="0.2"><ellipse c_etype="pad_shell" cx="4333.185" cy="3083" rx="4.52755" ry="4.52755" layerid="11" stroke-width="0"/><circle c_etype="pad_hole" cx="4333.185" cy="3083" r="2.9528" layerid="11" stroke-width="0"/></g><g c_partid="part_pad" c_etype="pinpart" c_origin="4544.9996,3260.815" layerid="11" number="1" net="D4" plated ="Y"  id="gge1905" locked="0" c_rotation="270" c_width="9.0551" c_height="9.0551" title="D4" c_shape="ELLIPSE" pasteexpansion="0" solderexpansion="0.2"><ellipse c_etype="pad_shell" cx="4544.9996" cy="3260.815" rx="4.52755" ry="4.52755" layerid="11" stroke-width="0"/><circle c_etype="pad_hole" cx="4545" cy="3260.815" r="2.9528" layerid="11" stroke-width="0"/></g><g c_partid="part_pad" c_etype="pinpart" c_origin="4545,3280.5" layerid="11" number="2" net="LEDR" plated ="Y"  id="gge1920" locked="0" c_rotation="270" c_width="9.0551" c_height="9.0551" title="LEDR" c_shape="ELLIPSE" pasteexpansion="0" solderexpansion="0.2"><ellipse c_etype="pad_shell" cx="4545" cy="3280.5" rx="4.52755" ry="4.52755" layerid="11" stroke-width="0"/><circle c_etype="pad_hole" cx="4545" cy="3280.5" r="2.9528" layerid="11" stroke-width="0"/></g><g c_partid="part_pad" c_etype="pinpart" c_origin="4545.0004,3300.185" layerid="11" number="3" net="LEDB" plated ="Y"  id="gge1935" locked="0" c_rotation="270" c_width="9.0551" c_height="9.0551" title="LEDB" c_shape="ELLIPSE" pasteexpansion="0" solderexpansion="0.2"><ellipse c_etype="pad_shell" cx="4545.0004" cy="3300.185" rx="4.52755" ry="4.52755" layerid="11" stroke-width="0"/><circle c_etype="pad_hole" cx="4545" cy="3300.185" r="2.9528" layerid="11" stroke-width="0"/></g><g c_partid="part_pad" c_etype="pinpart" c_origin="4433.315,3083" layerid="11" number="1" net="5V" plated ="Y"  id="gge2037" locked="0" c_rotation="0" c_width="9.0551" c_height="9.0551" title="5V" c_shape="ELLIPSE" pasteexpansion="0" solderexpansion="0.2"><ellipse c_etype="pad_shell" cx="4433.315" cy="3083" rx="4.52755" ry="4.52755" layerid="11" stroke-width="0"/><circle c_etype="pad_hole" cx="4433.315" cy="3083" r="2.9528" layerid="11" stroke-width="0"/></g><g c_partid="part_pad" c_etype="pinpart" c_origin="4453,3083" layerid="11" number="2" net="5V" plated ="Y"  id="gge2052" locked="0" c_rotation="0" c_width="9.0551" c_height="9.0551" title="5V" c_shape="ELLIPSE" pasteexpansion="0" solderexpansion="0.2"><ellipse c_etype="pad_shell" cx="4453" cy="3083" rx="4.52755" ry="4.52755" layerid="11" stroke-width="0"/><circle c_etype="pad_hole" cx="4453" cy="3083" r="2.9528" layerid="11" stroke-width="0"/></g><g c_partid="part_pad" c_etype="pinpart" c_origin="4472.685,3083" layerid="11" number="3" net="5V" plated ="Y"  id="gge2067" locked="0" c_rotation="0" c_width="9.0551" c_height="9.0551" title="5V" c_shape="ELLIPSE" pasteexpansion="0" solderexpansion="0.2"><ellipse c_etype="pad_shell" cx="4472.685" cy="3083" rx="4.52755" ry="4.52755" layerid="11" stroke-width="0"/><circle c_etype="pad_hole" cx="4472.685" cy="3083" r="2.9528" layerid="11" stroke-width="0"/></g><g c_partid="part_pad" c_etype="pinpart" c_origin="4363.315,3083" layerid="11" number="1" net="5V" plated ="Y"  id="gge2169" locked="0" c_rotation="0" c_width="9.0551" c_height="9.0551" title="5V" c_shape="ELLIPSE" pasteexpansion="0" solderexpansion="0.2"><ellipse c_etype="pad_shell" cx="4363.315" cy="3083" rx="4.52755" ry="4.52755" layerid="11" stroke-width="0"/><circle c_etype="pad_hole" cx="4363.315" cy="3083" r="2.9528" layerid="11" stroke-width="0"/></g><g c_partid="part_pad" c_etype="pinpart" c_origin="4383,3083" layerid="11" number="2" net="5V" plated ="Y"  id="gge2184" locked="0" c_rotation="0" c_width="9.0551" c_height="9.0551" title="5V" c_shape="ELLIPSE" pasteexpansion="0" solderexpansion="0.2"><ellipse c_etype="pad_shell" cx="4383" cy="3083" rx="4.52755" ry="4.52755" layerid="11" stroke-width="0"/><circle c_etype="pad_hole" cx="4383" cy="3083" r="2.9528" layerid="11" stroke-width="0"/></g><g c_partid="part_pad" c_etype="pinpart" c_origin="4402.685,3083" layerid="11" number="3" net="5V" plated ="Y"  id="gge2199" locked="0" c_rotation="0" c_width="9.0551" c_height="9.0551" title="5V" c_shape="ELLIPSE" pasteexpansion="0" solderexpansion="0.2"><ellipse c_etype="pad_shell" cx="4402.685" cy="3083" rx="4.52755" ry="4.52755" layerid="11" stroke-width="0"/><circle c_etype="pad_hole" cx="4402.685" cy="3083" r="2.9528" layerid="11" stroke-width="0"/></g><g c_partid="part_hole" c_etype="pinpart" c_shapetype="group" c_origin="4072,3365.5" layerid="11" id="gge3461" locked="0" ><circle cx="4072" cy="3365.5" r="7.874"  stroke-width="1" fill-opacity="0" /></g><g c_partid="part_hole" c_etype="pinpart" c_shapetype="group" c_origin="4559.5,3370.5" layerid="11" id="gge3491" locked="0" ><circle cx="4559.5" cy="3370.5" r="7.874"  stroke-width="1" fill-opacity="0" /></g><g c_partid="part_hole" c_etype="pinpart" c_shapetype="group" c_origin="4390.5,3122.5" layerid="11" id="gge3521" locked="0" ><circle cx="4390.5" cy="3122.5" r="7.874"  stroke-width="1" fill-opacity="0" /></g><g c_partid="part_hole" c_etype="pinpart" c_shapetype="group" c_origin="4142.5,3122" layerid="11" id="gge3536" locked="0" ><circle cx="4142.5" cy="3122" r="7.874"  stroke-width="1" fill-opacity="0" /></g><polyline points="4047.559 3049.162 4579.054 3049.162 4579 3390.5 4047 3390 4047.559 3049.162" stroke-width="1"  stroke-linecap="round" fill="none" layerid="10" net="" id="gge2361" locked="0" /></svg>